<?xml version="1.0" standalone="no"?>
<!DOCTYPE svg PUBLIC "-//W3C//DTD SVG 1.1//EN" "http://www.w3.org/Graphics/SVG/1.1/DTD/svg11.dtd" >
<svg xmlns="http://www.w3.org/2000/svg" xmlns:xlink="http://www.w3.org/1999/xlink" version="1.1">
<metadata>
Created by FontForge 20201107 at Wed Feb 14 21:27:02 2024
 By 
</metadata>
<defs>
<font id="NetshoesConceito-BoldTx" horiz-adv-x="616" >
  <font-face 
    font-family="Netshoes Conceito Bold Tx"
    font-weight="700"
    font-stretch="normal"
    units-per-em="1000"
    panose-1="0 0 0 0 0 0 0 0 0 0"
    ascent="800"
    descent="-200"
    x-height="500"
    cap-height="680"
    bbox="8 -210 3626 710"
    underline-thickness="50"
    underline-position="-125"
    unicode-range="U+0020-00EA"
  />
<missing-glyph horiz-adv-x="466" 
d="M377 -200h-285v900h285v-900zM308 -138v30h-92l63 42h29v30h-150v-30h63l-63 -42v-30h150zM308 -15v101h-150v-101h150zM308 140v102h-90v-50h30v20h30v-42h-90v72h-30v-102h150zM308 262v90h-30v-60h-120v-30h150zM248 313v63h60v30h-150v-30h60v-33h-60v-30h90z
M308 430v31h-60v63h-90v-94h150zM308 547v30h-60v33h60v30h-149v-30h59v-33h-60v-30h150zM188 57h90v-43h-90v43zM188 493h30v-32h-30v32z" />
    <glyph glyph-name=".notdef" horiz-adv-x="466" 
d="M377 -200h-285v900h285v-900zM308 -138v30h-92l63 42h29v30h-150v-30h63l-63 -42v-30h150zM308 -15v101h-150v-101h150zM308 140v102h-90v-50h30v20h30v-42h-90v72h-30v-102h150zM308 262v90h-30v-60h-120v-30h150zM248 313v63h60v30h-150v-30h60v-33h-60v-30h90z
M308 430v31h-60v63h-90v-94h150zM308 547v30h-60v33h60v30h-149v-30h59v-33h-60v-30h150zM188 57h90v-43h-90v43zM188 493h30v-32h-30v32z" />
    <glyph glyph-name=".null" horiz-adv-x="0" 
 />
    <glyph glyph-name="nonmarkingreturn" horiz-adv-x="333" 
 />
    <glyph glyph-name="space" unicode=" " horiz-adv-x="189" 
 />
    <glyph glyph-name="space" unicode="&#xa0;" horiz-adv-x="189" 
 />
    <glyph glyph-name="comma" unicode="," 
 />
    <glyph glyph-name="period" unicode="." horiz-adv-x="242" 
d="M76.5 8.5q-18.5 18.5 -18.5 44.5t18.5 44.5t44.5 18.5t44.5 -18.5t18.5 -44.5t-18.5 -44.5t-44.5 -18.5t-44.5 18.5z" />
    <glyph glyph-name="A" unicode="A" 
 />
    <glyph glyph-name="B" unicode="B" 
 />
    <glyph glyph-name="C" unicode="C" 
 />
    <glyph glyph-name="D" unicode="D" 
 />
    <glyph glyph-name="E" unicode="E" horiz-adv-x="596" 
d="M54 680h488v-145h-313v-119h283v-130h-283v-141h313v-145h-488v680z" />
    <glyph glyph-name="F" unicode="F" 
 />
    <glyph glyph-name="G" unicode="G" 
 />
    <glyph glyph-name="H" unicode="H" horiz-adv-x="683" 
d="M54 680h175v-250h225v250h175v-680h-175v272h-225v-272h-175v680z" />
    <glyph glyph-name="I" unicode="I" horiz-adv-x="284" 
d="M54 680h175v-680h-175v680z" />
    <glyph glyph-name="J" unicode="J" 
 />
    <glyph glyph-name="K" unicode="K" 
 />
    <glyph glyph-name="L" unicode="L" 
 />
    <glyph glyph-name="M" unicode="M" 
 />
    <glyph glyph-name="N" unicode="N" 
 />
    <glyph glyph-name="O" unicode="O" 
 />
    <glyph glyph-name="P" unicode="P" 
 />
    <glyph glyph-name="Q" unicode="Q" 
 />
    <glyph glyph-name="R" unicode="R" horiz-adv-x="650" 
d="M54 680h315q70 0 121.5 -30t78.5 -80.5t27 -112.5q0 -80 -36 -135.5t-103 -78.5l180 -243h-200l-164 232l-44 4v-236h-175v680zM337 374q40 1 62.5 23t22.5 62q0 41 -21.5 63t-61.5 21l-110 -1v-163q44 -5 108 -5z" />
    <glyph glyph-name="S" unicode="S" horiz-adv-x="587" 
d="M73 13v88q69 -12 109 -17t78 -5q89 0 129 24t40 78q0 30 -22 54t-68 45l-166 76q-57 26 -86 64.5t-29 93.5q0 86 60 131t175 45q49 0 101 -7.5t92 -21.5v-83q-104 20 -187 20q-79 0 -110.5 -20.5t-31.5 -64.5q0 -23 15 -41t59 -38l148 -65q84 -37 117 -80.5t33 -107.5
q0 -90 -64.5 -140.5t-180.5 -50.5q-108 0 -211 23z" />
    <glyph glyph-name="T" unicode="T" 
 />
    <glyph glyph-name="U" unicode="U" 
 />
    <glyph glyph-name="V" unicode="V" horiz-adv-x="677" 
d="M193 680l145 -454l149 454h177l-240 -680h-171l-240 680h180z" />
    <glyph glyph-name="W" unicode="W" 
 />
    <glyph glyph-name="X" unicode="X" 
 />
    <glyph glyph-name="Y" unicode="Y" 
 />
    <glyph glyph-name="Z" unicode="Z" 
 />
    <glyph glyph-name="a" unicode="a" horiz-adv-x="555" 
d="M166 502.5q54 7.5 99 7.5q128 0 183.5 -49.5t55.5 -142.5v-318h-141l-12 46q-29 -25 -65 -40.5t-71 -15.5q-82 0 -127.5 39.5t-45.5 109.5q0 73 65.5 116.5t228.5 61.5q-6 30 -30 43t-78 13q-37 0 -77.5 -6t-73.5 -18v134q35 12 89 19.5zM272 104q30 0 66 17v94
q-75 -9 -101 -24t-26 -42q0 -45 61 -45z" />
    <glyph glyph-name="b" unicode="b" horiz-adv-x="538" 
d="M250 77q70 0 106.5 44.5t36.5 105.5v47q0 67 -28 107t-88 40q-43 0 -76.5 -15.5t-55.5 -38.5v-274q43 -16 105 -16zM45 700h100v-250q57 60 144 60q90 0 149 -64t59 -195q0 -125 -64 -193t-186 -68q-50 0 -98 9t-104 27v674z" />
    <glyph glyph-name="c" unicode="c" horiz-adv-x="484" 
d="M384 -4.5q-31 -5.5 -70 -5.5q-133 0 -203 63.5t-70 193.5t69.5 196.5t198.5 66.5q38 0 70 -5.5t71 -18.5v-152q-67 18 -119 18q-60 0 -91 -24.5t-31 -69.5v-24q0 -44 31.5 -68.5t91.5 -24.5q62 0 120 17v-142q-37 -15 -68 -20.5z" />
    <glyph glyph-name="d" unicode="d" horiz-adv-x="573" 
d="M304 361q-45 0 -68.5 -24t-23.5 -67v-38q0 -42 20 -66t57 -24q53 0 89 39v172q-38 8 -74 8zM110 442.5q69 67.5 201 67.5q7 0 67 -4v194h168v-700h-142l-16 59q-50 -69 -133 -69q-105 0 -159.5 68t-54.5 185q0 132 69 199.5z" />
    <glyph glyph-name="e" unicode="e" horiz-adv-x="557" 
d="M120 55q-79 65 -79 195q0 131 67.5 195.5t174.5 64.5q115 0 174 -50t59 -151q0 -48 -11 -95h-297q16 -88 156 -88q53 0 123 12v-129q-31 -9 -72.5 -14t-79.5 -5q-136 0 -215 65zM360 313q-1 80 -76 80q-34 0 -54.5 -20t-23.5 -60h154z" />
    <glyph glyph-name="f" unicode="f" horiz-adv-x="423" 
d="M145.5 667.5q44.5 42.5 140.5 42.5q59 0 109 -14v-123q-37 6 -66 6q-30 0 -44.5 -12t-15.5 -39v-28h126v-132h-126v-368h-168v368h-80v132h80v41q0 84 44.5 126.5z" />
    <glyph glyph-name="g" unicode="g" horiz-adv-x="580" 
d="M100.5 444.5q59.5 65.5 170.5 65.5q40 0 72 -12t53 -36l23 38h114v-446q0 -130 -72.5 -197t-204.5 -67q-43 0 -87 5t-75 14v127q60 -16 142 -16q68 0 98 28.5t31 86.5q-41 -23 -92 -23q-108 0 -170 59t-62 177q0 131 59.5 196.5zM233 165.5q23 -23.5 67 -23.5q36 0 65 13
v233q-23 8 -54 8q-49 0 -75 -29.5t-26 -86.5v-46q0 -45 23 -68.5z" />
    <glyph glyph-name="h" unicode="h" horiz-adv-x="576" 
d="M51 700h168v-256q29 30 67.5 48t82.5 18q74 0 113.5 -40t39.5 -112v-358h-168v311q0 30 -15.5 44.5t-50.5 14.5q-38 0 -69 -21v-349h-168v700z" />
    <glyph glyph-name="i" unicode="i" horiz-adv-x="277" 
d="M55 500h168v-500h-168v500zM66.5 687q25.5 23 72.5 23q46 0 72.5 -23t26.5 -62q0 -37 -26.5 -60.5t-72.5 -23.5t-72 23.5t-26 60.5q0 39 25.5 62z" />
    <glyph glyph-name="j" unicode="j" 
 />
    <glyph glyph-name="k" unicode="k" 
 />
    <glyph glyph-name="l" unicode="l" horiz-adv-x="297" 
d="M64 700h169v-700h-169v700z" />
    <glyph glyph-name="m" unicode="m" horiz-adv-x="853" 
d="M51 500h158l6 -52q27 29 63.5 45.5t78.5 16.5q47 0 81 -18t53 -52q28 32 68 51t84 19q71 0 113 -40.5t42 -111.5v-358h-168v311q0 30 -15 44.5t-47 14.5t-59 -15v-355h-168v311q0 30 -15.5 44.5t-47.5 14.5q-34 0 -59 -16v-354h-168v500z" />
    <glyph glyph-name="n" unicode="n" horiz-adv-x="576" 
d="M51 500h158l7 -59q28 32 68 50.5t85 18.5q74 0 113.5 -40t39.5 -112v-358h-168v311q0 30 -15.5 44.5t-50.5 14.5q-38 0 -69 -21v-349h-168v500z" />
    <glyph glyph-name="o" unicode="o" horiz-adv-x="586" 
d="M105.5 55.5q-64.5 65.5 -64.5 193.5q0 126 66 193.5t186 67.5q121 0 186.5 -66.5t65.5 -194.5q0 -126 -65.5 -192.5t-187.5 -66.5t-186.5 65.5zM230 160q21 -25 62 -25q42 0 63 25t21 68v40q0 46 -21 71.5t-63 25.5q-41 0 -62 -25.5t-21 -71.5v-40q0 -43 21 -68z" />
    <glyph glyph-name="p" unicode="p" horiz-adv-x="597" 
d="M293 139q45 0 68.5 24t23.5 67v38q0 42 -20 66t-57 24q-53 0 -89 -39v-172q38 -8 74 -8zM51 500h142l16 -59q50 69 133 69q105 0 159.5 -68t54.5 -185q0 -132 -69 -199.5t-201 -67.5q-7 0 -67 4v-194h-168v700z" />
    <glyph glyph-name="q" unicode="q" 
 />
    <glyph glyph-name="r" unicode="r" horiz-adv-x="399" 
d="M51 500h152l13 -65q25 36 56 55.5t74 19.5q14 0 32 -2v-157q-19 3 -42 3q-34 0 -62.5 -9t-54.5 -34v-311h-168v500z" />
    <glyph glyph-name="s" unicode="s" horiz-adv-x="464" 
d="M44 6v129q53 -8 80 -11t58 -3q41 0 58 7t17 20t-10 20.5t-43 24.5l-78 41q-44 23 -68 54t-24 78q0 144 219 144q78 0 153 -15v-121q-75 13 -135 13q-30 0 -42.5 -5.5t-12.5 -17.5q0 -8 6.5 -14t24.5 -15l73 -36q61 -30 87.5 -64t26.5 -84q0 -80 -56 -120.5t-180 -40.5
q-79 0 -154 16z" />
    <glyph glyph-name="t" unicode="t" horiz-adv-x="438" 
d="M115 500v130h168v-130h120v-131h-120v-162q0 -36 16 -50.5t50 -14.5q26 0 54 3v-141q-17 -6 -44.5 -10t-51.5 -4q-95 0 -143.5 47t-48.5 140v192h-85v131h85z" />
    <glyph glyph-name="u" unicode="u" horiz-adv-x="575" 
d="M94 32.5q-40 42.5 -40 113.5v354h168v-303q0 -35 16 -50t50 -15q35 0 68 21v347h168v-500h-158l-7 59q-28 -32 -67 -50.5t-85 -18.5q-73 0 -113 42.5z" />
    <glyph glyph-name="v" unicode="v" horiz-adv-x="572" 
d="M189 500l100 -322l96 322h173l-178 -500h-181l-184 500h174z" />
    <glyph glyph-name="w" unicode="w" 
 />
    <glyph glyph-name="x" unicode="x" 
 />
    <glyph glyph-name="y" unicode="y" 
 />
    <glyph glyph-name="z" unicode="z" 
 />
    <glyph glyph-name="atilde" unicode="&#xe3;" horiz-adv-x="543" 
d="M344 45q-28 -25 -63 -40t-72 -15q-77 0 -122 39.5t-45 109.5q0 73 63.5 116.5t223.5 61.5q-6 30 -31 43t-82 13q-78 0 -146 -24v134q36 12 87.5 19.5t95.5 7.5q128 0 183.5 -49.5t55.5 -142.5v-318h-136zM104 582q0 41 23.5 68t66.5 27q23 0 42 -4.5t44 -13.5
q31 -11 46 -11q16 0 22.5 8.5t6.5 26.5h85q2 -16 2 -23q0 -45 -23.5 -74.5t-67.5 -29.5q-24 0 -41.5 5t-40.5 15q-28 13 -44 13q-14 0 -22.5 -9t-5.5 -28h-90q-3 15 -3 30zM260 104q37 0 71 18v93q-74 -10 -103 -24.5t-29 -41.5q0 -45 61 -45z" />
    <glyph glyph-name="ccedilla" unicode="&#xe7;" horiz-adv-x="484" 
d="M111 53.5q-70 63.5 -70 193.5t69.5 196.5t198.5 66.5q38 0 70 -5.5t71 -18.5v-152q-67 18 -119 18q-60 0 -91 -24.5t-31 -69.5v-24q0 -44 31.5 -68.5t91.5 -24.5q62 0 120 17v-142q-37 -15 -68 -20.5t-70 -5.5q-133 0 -203 63.5zM193 -128q45 -8 63 -8q24 0 32 7t8 20
q0 11 -10.5 24t-44.5 40h99q29 -12 45.5 -32.5t16.5 -41.5q0 -45 -31 -68t-87 -23q-44 0 -91 11v71z" />
    <glyph glyph-name="ecircumflex" unicode="&#xea;" horiz-adv-x="543" 
d="M232 681h112l117 -130h-130l-43 54l-43 -54h-128zM108.5 445.5q67.5 64.5 174.5 64.5q115 0 174 -50t59 -151q0 -48 -11 -95h-297q16 -88 156 -88q53 0 123 12v-129q-31 -9 -72.5 -14t-79.5 -5q-136 0 -215 65t-79 195q0 131 67.5 195.5zM360 313q-1 80 -76 80
q-34 0 -54.5 -20t-23.5 -60h154z" />
    <glyph glyph-name="V.alt" horiz-adv-x="609" 
d="M184 426q42 -120 120 -299q71 155 115 283t72 270h105q-29 -158 -92 -324.5t-155 -355.5h-90q-94 190 -156 355.5t-90 324.5l108 1q21 -135 63 -255z" />
    <glyph glyph-name="d.alt" horiz-adv-x="519" 
d="M290 422q-74 0 -109.5 -41t-35.5 -108v-46q0 -69 32.5 -108t113.5 -39q60 0 102 5v329q-50 8 -103 8zM292 510q47 0 101 -8v198h100v-683q-55 -14 -102.5 -20.5t-111.5 -6.5q-238 0 -238 260t251 260z" />
    <glyph glyph-name="f.alt" horiz-adv-x="416" 
d="M128 500v182q52 13 115 20.5t113 7.5q18 0 32 -2v-97q-24 4 -63 4q-43 0 -97 -7v-108h160v-88h-160v-412h-100v412h-100v88h100z" />
    <glyph glyph-name="r.alt" horiz-adv-x="360" 
d="M51 482q58 12 127.5 20t126.5 8q14 0 32 -2v-97q-21 4 -60 4q-60 0 -126 -8v-407h-100v482z" />
    <glyph glyph-name="v.alt" horiz-adv-x="494" 
d="M160.5 305.5q33.5 -97.5 87.5 -201.5q52 106 84.5 203t40.5 193h103q-31 -237 -184 -500h-90q-159 272 -184 500h104q5 -97 38.5 -194.5z" />
    <glyph glyph-name="o.cond" horiz-adv-x="553" 
d="M129.5 49.5q-51.5 59.5 -51.5 199.5q0 138 53 199.5t146 61.5q94 0 146 -60.5t52 -200.5q0 -138 -52 -198.5t-147 -60.5t-146.5 59.5zM203 113q25 -33 73 -33t73.5 33t25.5 94v86q0 62 -25 94.5t-74 32.5t-73.5 -32.5t-24.5 -94.5v-86q0 -61 25 -94z" />
    <glyph glyph-name="a.del" horiz-adv-x="561" 
d="M142.5 17q-46.5 27 -74 85t-27.5 147q0 261 257 261q94 0 209 -36v-474h-90l-9 86q-25 -47 -67 -71.5t-96 -24.5q-56 0 -102.5 27zM178.5 118q33.5 -39 90.5 -39q62 0 98 44t36 114v167q-54 19 -108 19q-76 0 -113 -41.5t-37 -108.5v-46q0 -70 33.5 -109z" />
    <glyph glyph-name="o.ext" horiz-adv-x="731" 
d="M120 52q-79 62 -79 197q0 130 82 195.5t243 65.5q163 0 243.5 -64.5t80.5 -196.5q0 -133 -80 -196t-245 -63q-166 0 -245 62zM277.5 168q27.5 -27 87.5 -27t88 27.5t28 69.5v24q0 44 -27.5 70.5t-88.5 26.5t-88 -26.5t-27 -70.5v-24q0 -43 27.5 -70z" />
    <glyph glyph-name="p.001" horiz-adv-x="557" 
d="M458 447q58 -63 58 -193t-58.5 -197t-153.5 -67q-113 0 -153 94v-284h-100v700h90l10 -96q44 106 159 106q90 0 148 -63zM186 122.5q31 -44.5 103 -44.5q65 0 94 40.5t29 108.5v46q0 70 -29.5 109.5t-93.5 39.5q-69 0 -101.5 -48t-32.5 -111v-26q0 -70 31 -114.5z" />
    <glyph glyph-name="f.ss01" horiz-adv-x="423" 
d="M117.5 677q56.5 33 175.5 33q52 0 102 -14v-123q-51 6 -78 6q-42 0 -60 -9t-18 -27q0 -21 20 -43h136v-132h-126v-368h-168v368h-80v132h69q-29 41 -29 79q0 65 56.5 98z" />
    <glyph glyph-name="i.ss01" horiz-adv-x="321" 
d="M89 32.5q-42 42.5 -42 130.5v337h168v-315q0 -24 11.5 -34t33.5 -10q14 0 35 3v-143q-33 -11 -80 -11q-84 0 -126 42.5zM60 687q26 23 73 23q46 0 72 -23t26 -62q0 -37 -26.5 -60.5t-71.5 -23.5q-46 0 -72.5 23.5t-26.5 60.5q0 39 26 62z" />
    <glyph glyph-name="l.ss01" horiz-adv-x="319" 
d="M86.5 32q-41.5 42 -41.5 131v537h168v-516q0 -43 44 -43q15 0 36 3v-143q-38 -11 -82 -11q-83 0 -124.5 42z" />
    <glyph glyph-name="t.ss01" horiz-adv-x="379" 
d="M103.5 37q-48.5 47 -48.5 140v453h169v-130h120v-131h-120v-162q0 -35 16 -50t49 -15q27 0 55 3v-141q-17 -6 -45 -10t-52 -4q-95 0 -143.5 47z" />
    <glyph glyph-name="atilde.ss02" horiz-adv-x="551" 
d="M254 510q105 0 162 -46t57 -137v-327h-91l-6 54q-24 -29 -63.5 -46.5t-83.5 -17.5q-79 0 -125 40.5t-46 110.5q0 50 28.5 86t97.5 61t189 38q-2 49 -38 71t-104 22q-76 0 -144 -24v88q78 27 167 27zM183 555q-1 18 8 27.5t25 9.5q20 0 50 -14q41 -19 82 -19q39 0 61 26
t22 67q0 7 -2 23h-65q0 -39 -36 -39q-18 0 -47 12q-47 22 -83 22q-40 0 -64 -25t-24 -63q0 -13 3 -27h70zM183.5 92q24.5 -17 69.5 -17q64 0 120 40v121q-121 -11 -167.5 -34t-46.5 -62q0 -31 24.5 -48z" />
    <glyph glyph-name="i.ss02" horiz-adv-x="236" 
d="M70 500h100v-500h-100v500zM75.5 681.5q18.5 18.5 44.5 18.5t44.5 -18.5t18.5 -44.5t-18.5 -44.5t-44.5 -18.5t-44.5 18.5t-18.5 44.5t18.5 44.5z" />
    <glyph glyph-name="a.ss03" horiz-adv-x="531" 
d="M244 510q105 0 162 -46t57 -137v-327h-74l-26 87v2q-22 -49 -61 -74t-88 -25q-74 0 -120 41t-46 111q0 56 39.5 95t131.5 60l144 34q-4 46 -40 67t-102 21q-76 0 -144 -24v88q78 27 167 27zM170.5 93.5q21.5 -18.5 56.5 -18.5q36 0 67.5 20.5t50 55.5t18.5 75v18
l-140 -35q-41 -10 -57.5 -27t-16.5 -41q0 -29 21.5 -47.5z" />
    <glyph glyph-name="i.ss03" horiz-adv-x="236" 
d="M67 500h100v-500h-100v500zM65 701h105v-105h-105v105z" />
    <glyph glyph-name="n.ss04" horiz-adv-x="553" 
d="M395 0v306q0 60 -28 87t-91 27t-90.5 -27t-27.5 -87v-306h-100v292q0 118 56 168t163 50q73 0 120 -18.5t72.5 -66t25.5 -133.5v-292h-100z" />
    <glyph glyph-name="a.ss05" horiz-adv-x="531" 
d="M240 510q109 0 166 -46t57 -137v-327h-91l-6 54q-24 -30 -64 -47t-88 -17q-74 0 -120 41t-46 111q0 131 176 164q54 10 139 19q-2 50 -38 72t-104 22q-69 0 -144 -20v88q80 23 163 23zM172.5 91.5q23.5 -17.5 66.5 -17.5q65 0 124 41v123q-69 -7 -129 -21
q-48 -12 -66.5 -30.5t-18.5 -46.5q0 -31 23.5 -48.5z" />
    <glyph glyph-name="n.ss05" horiz-adv-x="576" 
d="M78 482q47 13 104.5 20.5t104.5 7.5q211 0 211 -167v-343h-100v325q0 54 -29 75.5t-95 21.5q-53 0 -96 -12v-410h-100v482z" />
    <glyph glyph-name="a.ss10" horiz-adv-x="563" 
d="M348.5 420q-28.5 3 -51.5 3q-74 0 -109.5 -41.5t-35.5 -108.5v-46q0 -67 28 -107t88 -40q43 0 76.5 15.5t55.5 38.5v277q-23 6 -51.5 9zM299 510q98 0 201 -31v-479h-90l-6 56q-60 -66 -148 -66q-92 0 -150 62t-58 198q0 260 251 260z" />
    <glyph glyph-name="g.ss10" horiz-adv-x="586" 
d="M116.5 67q-59.5 61 -59.5 182q0 261 257 261q94 0 209 -36v-419q0 -131 -71 -198t-202 -67q-33 0 -70 5t-68 14v87q60 -16 128 -16q90 0 136.5 40t46.5 119v20q-27 -26 -67 -39.5t-85 -13.5q-95 0 -154.5 61zM196.5 130q35.5 -35 103.5 -35q35 0 72 17t51 42v250
q-54 19 -112 19q-76 0 -113 -41.5t-37 -108.5v-46q0 -62 35.5 -97z" />
    <glyph glyph-name="m.ss10" horiz-adv-x="805" 
d="M51 482q47 13 104.5 20.5t104.5 7.5q90 0 140 -40q64 40 140 40q211 0 211 -167v-343h-100v325q0 54 -29 75.5t-95 21.5q-43 0 -84 -18q8 -30 8 -61v-343h-100v325q0 53 -26 75t-78 22q-53 0 -96 -12v-410h-100v482z" />
    <glyph glyph-name="n.ss10" horiz-adv-x="576" 
d="M78 482q47 13 104.5 20.5t104.5 7.5q211 0 211 -167v-343h-100v325q0 54 -29 75.5t-95 21.5q-53 0 -96 -12v-410h-100v482z" />
    <glyph glyph-name="p.ss10" horiz-adv-x="544" 
d="M254 78q74 0 109.5 41t35.5 108v46q0 65 -32.5 106t-93.5 41q-42 0 -64.5 -1.5t-57.5 -7.5v-325q50 -8 103 -8zM51 481q110 29 212 29q119 0 179.5 -62t60.5 -198q0 -260 -251 -260q-47 0 -101 8v-198h-100v681z" />
    <glyph glyph-name="u.ss10" horiz-adv-x="525" 
d="M474 18q-47 -13 -104.5 -20.5t-104.5 -7.5q-211 0 -211 167v343h100v-325q0 -54 29 -75.5t95 -21.5q53 0 96 12v410h100v-482z" />
    <glyph glyph-name="i.ss15" horiz-adv-x="273" 
d="M68 500h100v-367q0 -28 13 -40t39 -12q14 0 35 3v-83q-27 -11 -60 -11q-127 0 -127 139v371zM65 701h105v-105h-105v105z" />
    <glyph glyph-name="a.ss18" horiz-adv-x="541" 
d="M225 510q127 0 185 -44t58 -135v-321q-70 -11 -113 -15.5t-81 -4.5q-221 0 -221 152q0 49 29 85t97 63.5t187 50.5q-7 41 -42 59.5t-98 18.5q-77 0 -144 -19v92q67 18 143 18zM184.5 92q27.5 -16 91.5 -16q51 0 92 7v171q-91 -22 -135 -38t-60 -32.5t-16 -43.5
q0 -32 27.5 -48z" />
    <glyph glyph-name="atilde.ss18" horiz-adv-x="541" 
d="M225 510q127 0 185 -44t58 -135v-321q-70 -11 -113 -15.5t-81 -4.5q-221 0 -221 152q0 49 29 85t97 63.5t187 50.5q-7 41 -42 59.5t-98 18.5q-77 0 -144 -19v92q67 18 143 18zM179 555q-1 20 9.5 30.5t28.5 10.5q20 0 45 -12q23 -11 41.5 -16.5t40.5 -5.5q43 0 63 24.5
t20 66.5q0 8 -2 28h-65q0 -19 -9.5 -29t-26.5 -10q-20 0 -47 12q-14 7 -37 11.5t-46 4.5q-40 0 -64 -25t-24 -63q0 -13 3 -27h70zM184.5 92q27.5 -16 91.5 -16q51 0 92 7v171q-91 -22 -135 -38t-60 -32.5t-16 -43.5q0 -32 27.5 -48z" />
    <glyph glyph-name="f.ss18" horiz-adv-x="397" 
d="M146 666q46 44 125 44q33 0 57.5 -4.5t49.5 -14.5v-83q-56 13 -102 13q-42 0 -59 -20t-17 -60v-41h178v-88h-178v-412h-100v412h-92v88h92v39q0 83 46 127z" />
    <glyph glyph-name="t.ss18" horiz-adv-x="372" 
d="M154.5 30q-39.5 40 -39.5 115v265h-97v90h97l10 130h90v-130h134v-90h-134v-251q0 -43 19.5 -61.5t66.5 -18.5q21 0 48 4v-81q-31 -12 -83 -12q-72 0 -111.5 40z" />
    <glyph glyph-name="u.ss18" horiz-adv-x="522" 
d="M471 0h-91l-5 50q-27 -28 -66.5 -44t-85.5 -16q-79 0 -124 47t-45 121v342h100v-321q0 -52 23.5 -74.5t69.5 -22.5q66 0 124 43v375h100v-500z" />
    <glyph glyph-name="g.ss18.001" horiz-adv-x="573" 
d="M114.5 65.5q-56.5 60.5 -56.5 182.5q0 129 57.5 195.5t155.5 66.5q57 0 94 -15.5t58 -56.5l6 62h90v-446q0 -130 -71 -197t-202 -67q-33 0 -70 5t-68 14v87q60 -16 128 -16q90 0 136.5 40t46.5 118v36q-24 -39 -63 -54t-93 -15q-92 0 -148.5 60.5zM196.5 129.5
q35.5 -35.5 103.5 -35.5q32 0 67.5 16.5t51.5 39.5v243v3q-46 27 -108 27q-76 0 -113 -41.5t-37 -108.5v-46q0 -62 35.5 -97.5z" />
    <glyph glyph-name="period.alt" horiz-adv-x="226" 
d="M63 100h100v-100h-100v100z" />
    <glyph glyph-name="Ref" horiz-adv-x="3654" 
d="M2307.5 55q-57.5 65 -57.5 197q0 129 57.5 192.5t173.5 63.5t173 -64.5t57 -195.5q0 -130 -57 -194t-173 -64t-173.5 65zM28 500h141l5 -47q68 57 155 57q80 0 118 -44t38 -114v-352h-150v322q0 66 -70 66q-45 0 -87 -27v-361h-150v500zM585 442.5q60 65.5 177 65.5
q110 0 160 -54t50 -162q0 -38 -11 -93h-283q11 -48 44 -66.5t92 -18.5q39 0 63 3t72 14v-119q-49 -13 -81 -17.5t-78 -4.5q-138 0 -201.5 63.5t-63.5 193.5t60 195.5zM828 299v7q0 48 -20.5 68.5t-53.5 20.5q-35 0 -57.5 -23t-23.5 -73h155zM1013 630h150v-130h110v-120
h-110v-207q0 -29 15 -42t48 -13q31 0 53 7v-120q-17 -7 -44 -11t-55 -4q-83 0 -125 37.5t-42 118.5v484zM1372 474q53 36 150 36q37 0 72.5 -4t87.5 -14v-126q-40 6 -86.5 10t-75.5 4q-23 0 -31.5 -3.5t-8.5 -11.5t6.5 -14.5t20.5 -14.5l126 -70q39 -21 60.5 -49.5
t21.5 -72.5q0 -63 -53 -108.5t-178 -45.5q-83 0 -163 14v123q82 -13 163 -13q73 0 73 28q0 9 -6.5 15.5t-22.5 15.5l-106 60q-35 20 -56 37t-34 42.5t-13 62.5q0 63 53 99zM1754 630h150v-173q66 53 150 53q80 0 118 -44t38 -114v-352h-150v322q0 66 -70 66q-44 0 -86 -27
v-361h-150v630zM2420 141.5q22 -27.5 61 -27.5t60.5 27.5t21.5 75.5v63q0 48 -22 75.5t-61 27.5t-60.5 -27.5t-21.5 -75.5v-63q0 -48 22 -75.5zM2985 508q110 0 160 -54t50 -162q0 -38 -11 -93h-283q11 -48 44 -66.5t92 -18.5q41 0 65 2.5t71 13.5v-120q-46 -12 -78.5 -16
t-81.5 -4q-131 0 -198 65.5t-67 191.5q0 261 237 261zM3051 299v7q0 48 -20.5 68.5t-53.5 20.5q-35 0 -57.5 -23t-23.5 -73h155zM3275.5 474q49.5 36 146.5 36q35 0 73 -5t94 -16v-123q-40 6 -86.5 10t-75.5 4q-23 0 -31.5 -3.5t-8.5 -11.5t6.5 -14.5t20.5 -14.5l126 -70
q38 -21 62 -54t24 -78q0 -61 -51 -102.5t-173 -41.5q-61 0 -170 19v121q100 -16 163 -16q73 0 73 28q0 9 -6.5 15.5t-22.5 15.5l-107 60q-47 26 -76.5 57t-29.5 85q0 63 49.5 99z" />
    </font>
</defs>
</svg>
