<?xml version="1.0" standalone="no"?>
<!DOCTYPE svg PUBLIC "-//W3C//DTD SVG 1.1//EN" "http://www.w3.org/Graphics/SVG/1.1/DTD/svg11.dtd" >
<svg xmlns="http://www.w3.org/2000/svg" xmlns:xlink="http://www.w3.org/1999/xlink" version="1.1">
<metadata>
Created by FontForge 20201107 at Wed Feb 14 21:27:02 2024
 By 
</metadata>
<defs>
<font id="NetshoesConceito-Thin" horiz-adv-x="600" >
  <font-face 
    font-family="Netshoes Conceito Thin"
    font-weight="100"
    font-stretch="normal"
    units-per-em="1000"
    panose-1="0 0 0 0 0 0 0 0 0 0"
    ascent="800"
    descent="-200"
    x-height="500"
    cap-height="680"
    bbox="0 -210 3618 710"
    underline-thickness="50"
    underline-position="-125"
    unicode-range="U+0020-00EA"
  />
<missing-glyph horiz-adv-x="450" 
d="M369 -200h-285v900h285v-900zM300 -138v30h-92l63 42h29v30h-150v-30h63l-63 -42v-30h150zM300 -15v101h-150v-101h150zM300 140v102h-90v-50h30v20h30v-42h-90v72h-30v-102h150zM300 262v90h-30v-60h-120v-30h150zM240 313v63h60v30h-150v-30h60v-33h-60v-30h90z
M300 430v31h-60v63h-90v-94h150zM300 547v30h-60v33h60v30h-149v-30h59v-33h-60v-30h150zM180 57h90v-43h-90v43zM180 493h30v-32h-30v32z" />
    <glyph glyph-name=".notdef" horiz-adv-x="450" 
d="M369 -200h-285v900h285v-900zM300 -138v30h-92l63 42h29v30h-150v-30h63l-63 -42v-30h150zM300 -15v101h-150v-101h150zM300 140v102h-90v-50h30v20h30v-42h-90v72h-30v-102h150zM300 262v90h-30v-60h-120v-30h150zM240 313v63h60v30h-150v-30h60v-33h-60v-30h90z
M300 430v31h-60v63h-90v-94h150zM300 547v30h-60v33h60v30h-149v-30h59v-33h-60v-30h150zM180 57h90v-43h-90v43zM180 493h30v-32h-30v32z" />
    <glyph glyph-name=".null" horiz-adv-x="0" 
 />
    <glyph glyph-name="nonmarkingreturn" horiz-adv-x="333" 
 />
    <glyph glyph-name="space" unicode=" " horiz-adv-x="220" 
 />
    <glyph glyph-name="space" unicode="&#xa0;" horiz-adv-x="220" 
 />
    <glyph glyph-name="comma" unicode="," 
 />
    <glyph glyph-name="period" unicode="." horiz-adv-x="226" 
d="M68.5 8.5q-18.5 18.5 -18.5 44.5t18.5 44.5t44.5 18.5t44.5 -18.5t18.5 -44.5t-18.5 -44.5t-44.5 -18.5t-44.5 18.5z" />
    <glyph glyph-name="A" unicode="A" 
 />
    <glyph glyph-name="B" unicode="B" 
 />
    <glyph glyph-name="C" unicode="C" 
 />
    <glyph glyph-name="D" unicode="D" 
 />
    <glyph glyph-name="E" unicode="E" horiz-adv-x="560" 
d="M80 680h400v-28h-368v-286h338v-28h-338v-310h368v-28h-400v680z" />
    <glyph glyph-name="F" unicode="F" 
 />
    <glyph glyph-name="G" unicode="G" 
 />
    <glyph glyph-name="H" unicode="H" horiz-adv-x="624" 
d="M80 680h32v-314h400v314h32v-680h-32v336h-400v-336h-32v680z" />
    <glyph glyph-name="I" unicode="I" horiz-adv-x="192" 
d="M80 680h32v-680h-32v680z" />
    <glyph glyph-name="J" unicode="J" 
 />
    <glyph glyph-name="K" unicode="K" 
 />
    <glyph glyph-name="L" unicode="L" 
 />
    <glyph glyph-name="M" unicode="M" 
 />
    <glyph glyph-name="N" unicode="N" 
 />
    <glyph glyph-name="O" unicode="O" 
 />
    <glyph glyph-name="P" unicode="P" 
 />
    <glyph glyph-name="Q" unicode="Q" 
 />
    <glyph glyph-name="R" unicode="R" horiz-adv-x="546" 
d="M80 680h214q105 0 155.5 -52t50.5 -147q0 -87 -48.5 -139t-122.5 -62l202 -280h-37l-198 278q-60 0 -99.5 4t-86.5 21v-303h-30v680zM200.5 310q40.5 -4 103.5 -4q47 0 84.5 24t58.5 64t21 87q0 84 -43.5 127.5t-106.5 43.5h-208v-320q50 -18 90.5 -22z" />
    <glyph glyph-name="S" unicode="S" horiz-adv-x="571" 
d="M65 13v88q69 -12 109 -17t78 -5q89 0 129 24t40 78q0 30 -22 54t-68 45l-166 76q-57 26 -86 64.5t-29 93.5q0 86 60 131t175 45q49 0 101 -7.5t92 -21.5v-83q-104 20 -187 20q-79 0 -110.5 -20.5t-31.5 -64.5q0 -23 15 -41t59 -38l148 -65q84 -37 117 -80.5t33 -107.5
q0 -90 -64.5 -140.5t-180.5 -50.5q-108 0 -211 23z" />
    <glyph glyph-name="T" unicode="T" 
 />
    <glyph glyph-name="U" unicode="U" 
 />
    <glyph glyph-name="V" unicode="V" horiz-adv-x="593" 
d="M57 680l242 -633l237 633h32l-255 -680h-28l-260 680h32z" />
    <glyph glyph-name="W" unicode="W" 
 />
    <glyph glyph-name="X" unicode="X" 
 />
    <glyph glyph-name="Y" unicode="Y" 
 />
    <glyph glyph-name="Z" unicode="Z" 
 />
    <glyph glyph-name="a" unicode="a" horiz-adv-x="535" 
d="M253 510q103 0 142.5 -49t39.5 -142v-319h-25l-4 75q-32 -38 -72.5 -61.5t-102.5 -23.5q-76 0 -117 42t-41 108q0 47 29 80.5t102 56t201 31.5q-1 65 -15.5 102.5t-48 54.5t-92.5 17q-85 0 -147 -22v26q69 24 151 24zM134 53.5q29 -35.5 97 -35.5q99 0 174 86v176
q-109 -12 -169.5 -25t-95.5 -39.5t-35 -75.5q0 -51 29 -86.5z" />
    <glyph glyph-name="b" unicode="b" horiz-adv-x="578" 
d="M281 77q70 0 106.5 44.5t36.5 105.5v47q0 67 -28 107t-88 40q-43 0 -76.5 -15.5t-55.5 -38.5v-274q43 -16 105 -16zM76 700h100v-250q57 60 144 60q90 0 149 -64t59 -195q0 -125 -64 -193t-186 -68q-50 0 -98 9t-104 27v674z" />
    <glyph glyph-name="c" unicode="c" horiz-adv-x="456" 
d="M354 -6.5q-27 -3.5 -62 -3.5q-70 0 -124.5 29.5t-86 86.5t-31.5 137q0 134 66.5 200.5t177.5 66.5q59 0 119 -15v-26q-52 13 -119 13q-101 0 -156.5 -58.5t-55.5 -160.5v-36q0 -66 28.5 -113.5t76.5 -71.5t105 -24q70 0 124 17v-26q-35 -12 -62 -15.5z" />
    <glyph glyph-name="d" unicode="d" horiz-adv-x="487" 
d="M354 473q-36 8 -65 8q-52 0 -98.5 -20t-77 -66.5t-30.5 -121.5v-46q0 -68 24 -115t64 -70t89 -23q54 0 95.5 23t66.5 52v359q-32 12 -68 20zM112 445q62 65 179 65q46 0 76 -8.5t55 -23.5v222h30v-700h-20l-7 60q-36 -38 -78 -54t-94 -16q-89 0 -146 64t-57 196
q0 130 62 195z" />
    <glyph glyph-name="e" unicode="e" horiz-adv-x="501" 
d="M116.5 57.5q-66.5 67.5 -66.5 191.5q0 125 56 193t153 68q192 0 192 -201q0 -29 -7 -61h-363v-4q0 -109 57.5 -167.5t161.5 -58.5q79 0 131 16v-28q-56 -16 -131 -16q-117 0 -183.5 67.5zM419 276q2 10 2 29q0 98 -43 137.5t-120 39.5q-51 0 -91.5 -26.5t-63 -73.5
t-22.5 -106h338z" />
    <glyph glyph-name="f" unicode="f" horiz-adv-x="400" 
d="M146 681q41 29 125 29q37 0 91 -15v-22q-60 9 -91 9q-64 0 -100 -17t-36 -63q0 -18 6 -32.5t19 -38.5q11 -18 16 -31h186v-28h-182v-472h-30v472h-100v28h95q-1 5 -14 27t-19.5 38.5t-6.5 36.5q0 50 41 79z" />
    <glyph glyph-name="g" unicode="g" horiz-adv-x="557" 
d="M451 73q-18 -27 -61 -47.5t-121 -20.5q-196 0 -196 243q0 129 56.5 195.5t153.5 66.5q66 0 105.5 -17.5t63.5 -50.5l5 58h24v-446q0 -264 -243 -264q-33 0 -70 5t-68 14v29q30 -8 67.5 -13t67.5 -5q216 0 216 227v26zM282 34q51 0 100.5 20t68.5 46v305q-25 38 -71 58
t-96 20q-90 0 -135.5 -59t-45.5 -151v-46q0 -193 179 -193z" />
    <glyph glyph-name="h" unicode="h" horiz-adv-x="560" 
d="M100 700h30v-267q33 38 78 57.5t93 19.5q77 0 119.5 -38.5t42.5 -108.5v-363h-30v365q0 51 -30.5 84t-102.5 33q-93 0 -170 -80v-402h-30v700z" />
    <glyph glyph-name="i" unicode="i" horiz-adv-x="236" 
d="M98 18.5q-20 23.5 -20 62.5v419h30v-417q0 -61 58 -61q14 0 35 3v-24q-19 -6 -43 -6q-40 0 -60 23.5zM73.5 667.5q8.5 8.5 20.5 8.5t20.5 -8.5t8.5 -20.5t-8.5 -20.5t-20.5 -8.5t-20.5 8.5t-8.5 20.5t8.5 20.5z" />
    <glyph glyph-name="j" unicode="j" 
 />
    <glyph glyph-name="k" unicode="k" 
 />
    <glyph glyph-name="l" unicode="l" horiz-adv-x="234" 
d="M96 18.5q-20 23.5 -20 62.5v619h30v-617q0 -61 58 -61q14 0 35 3v-24q-19 -6 -43 -6q-40 0 -60 23.5z" />
    <glyph glyph-name="m" unicode="m" horiz-adv-x="837" 
d="M100 500h25l4 -65q62 75 154 75q51 0 87.5 -21t52.5 -61q33 40 75 61t90 21q70 0 111 -39t41 -108v-363h-30v365q0 51 -28.5 84t-94.5 33q-42 0 -79.5 -18t-77.5 -58q5 -23 5 -43v-363h-30v365q0 51 -28.5 84t-94.5 33q-42 0 -78.5 -18.5t-73.5 -60.5v-403h-30v500z" />
    <glyph glyph-name="n" unicode="n" horiz-adv-x="560" 
d="M100 500h25l4 -68q33 38 78.5 58t93.5 20q77 0 119.5 -38.5t42.5 -108.5v-363h-30v365q0 51 -30.5 84t-102.5 33q-93 0 -170 -80v-402h-30v500z" />
    <glyph glyph-name="o" unicode="o" horiz-adv-x="537" 
d="M106 54.5q-56 64.5 -56 194.5q0 128 58 194.5t161 66.5q104 0 161 -65.5t57 -195.5q0 -128 -57 -193.5t-162 -65.5q-106 0 -162 64.5zM129 75q47 -57 139 -57q93 0 140 57.5t47 161.5v26q0 105 -49 162t-138 57q-88 0 -137 -57.5t-49 -161.5v-26q0 -105 47 -162z" />
    <glyph glyph-name="p" unicode="p" horiz-adv-x="552" 
d="M198 27q36 -8 65 -8q85 0 145.5 49.5t60.5 158.5v46q0 102 -49 155t-128 53q-54 0 -95.5 -23t-66.5 -52v-359q32 -12 68 -20zM100 500h25l3 -58q36 36 78 52t93 16q89 0 146 -64t57 -196q0 -129 -64 -194.5t-177 -65.5q-46 0 -76 8.5t-55 23.5v-222h-30v700z" />
    <glyph glyph-name="q" unicode="q" 
 />
    <glyph glyph-name="r" unicode="r" horiz-adv-x="385" 
d="M100 500h25l4 -69q35 46 67 62.5t90 16.5q14 0 32 -2v-32q-19 3 -42 3q-49 0 -76.5 -14t-69.5 -56v-409h-30v500z" />
    <glyph glyph-name="s" unicode="s" horiz-adv-x="443" 
d="M69 7v28q74 -17 143 -17q75 0 113 27.5t38 74.5q0 36 -21.5 60.5t-76.5 49.5l-115 52q-46 21 -68.5 46t-22.5 64q0 50 42 84t130 34q78 0 136 -16v-26q-67 14 -136 14q-76 0 -109 -25t-33 -65q0 -27 16 -45t56 -37l118 -54q67 -31 90.5 -62t23.5 -74q0 -57 -43.5 -93.5
t-137.5 -36.5q-70 0 -143 17z" />
    <glyph glyph-name="t" unicode="t" horiz-adv-x="315" 
d="M101 109v521h30v-130h144v-28h-144v-359q0 -47 20.5 -68.5t64.5 -21.5q35 0 64 5v-24q-31 -9 -67 -9q-112 0 -112 114z" />
    <glyph glyph-name="u" unicode="u" horiz-adv-x="560" 
d="M139.5 28.5q-42.5 38.5 -42.5 108.5v363h30v-365q0 -51 30.5 -84t102.5 -33q93 0 170 80v402h30v-500h-25l-4 68q-33 -38 -78 -58t-94 -20q-77 0 -119.5 38.5z" />
    <glyph glyph-name="v" unicode="v" horiz-adv-x="478" 
d="M57 500l183 -462l181 462h32l-198 -500h-30l-200 500h32z" />
    <glyph glyph-name="w" unicode="w" 
 />
    <glyph glyph-name="x" unicode="x" 
 />
    <glyph glyph-name="y" unicode="y" 
 />
    <glyph glyph-name="z" unicode="z" 
 />
    <glyph glyph-name="atilde" unicode="&#xe3;" horiz-adv-x="535" 
d="M406 76q-30 -38 -71.5 -62t-103.5 -24q-77 0 -117.5 40.5t-40.5 109.5q0 47 29 80.5t102 56t201 31.5q-1 65 -15.5 102.5t-48 54.5t-92.5 17q-85 0 -147 -22v26q69 24 151 24q103 0 142.5 -49t39.5 -142v-319h-21zM231 20q101 0 174 84v176q-109 -12 -169.5 -25
t-95.5 -39.5t-35 -75.5q0 -120 126 -120zM123 582q0 29 16 48.5t45 19.5q21 0 38 -7t41 -21q23 -13 37 -19.5t31 -6.5q21 0 32 14t8 53h24q1 -6 1 -17q0 -41 -18 -59.5t-47 -18.5q-19 0 -36 7t-43 22q-22 12 -37 18.5t-30 6.5q-16 0 -25.5 -11t-9.5 -34q0 -11 1 -17h-25
q-3 11 -3 22z" />
    <glyph glyph-name="ccedilla" unicode="&#xe7;" horiz-adv-x="456" 
d="M167.5 19.5q-54.5 29.5 -86 86.5t-31.5 137q0 134 66.5 200.5t177.5 66.5q59 0 119 -15v-26q-52 13 -119 13q-101 0 -156.5 -58.5t-55.5 -160.5v-36q0 -66 28.5 -113.5t76.5 -71.5t105 -24q70 0 124 17v-26q-35 -12 -62 -15.5t-62 -3.5q-70 0 -124.5 29.5zM195 -170
q44 -12 72 -12q34 0 50 14.5t16 39.5q0 20 -13.5 37.5t-52.5 45.5h40q30 -23 43 -42t13 -46q0 -38 -27.5 -57.5t-65.5 -19.5q-36 0 -75 11v29z" />
    <glyph glyph-name="ecircumflex" unicode="&#xea;" horiz-adv-x="501" 
d="M250 672h16l112 -101h-43l-77 72l-80 -72h-41zM106 442q56 68 153 68q192 0 192 -201q0 -29 -7 -61h-363v-4q0 -109 57.5 -167.5t161.5 -58.5q79 0 131 16v-28q-56 -16 -131 -16q-117 0 -183.5 67.5t-66.5 191.5q0 125 56 193zM419 276q2 10 2 29q0 98 -43 137.5
t-120 39.5q-51 0 -91.5 -26.5t-63 -73.5t-22.5 -106h338z" />
    <glyph glyph-name="V.alt" horiz-adv-x="593" 
d="M176 426q42 -120 120 -299q71 155 115 283t72 270h105q-29 -158 -92 -324.5t-155 -355.5h-90q-94 190 -156 355.5t-90 324.5l108 1q21 -135 63 -255z" />
    <glyph glyph-name="d.alt" horiz-adv-x="537" 
d="M299 422q-74 0 -109.5 -41t-35.5 -108v-46q0 -69 32.5 -108t113.5 -39q60 0 102 5v329q-50 8 -103 8zM301 510q47 0 101 -8v198h100v-683q-55 -14 -102.5 -20.5t-111.5 -6.5q-238 0 -238 260t251 260z" />
    <glyph glyph-name="f.alt" horiz-adv-x="400" 
d="M120 500v182q52 13 115 20.5t113 7.5q18 0 32 -2v-97q-24 4 -63 4q-43 0 -97 -7v-108h160v-88h-160v-412h-100v412h-100v88h100z" />
    <glyph glyph-name="r.alt" horiz-adv-x="401" 
d="M100 482q58 12 127.5 20t126.5 8q14 0 32 -2v-97q-21 4 -60 4q-60 0 -126 -8v-407h-100v482z" />
    <glyph glyph-name="v.alt" horiz-adv-x="478" 
d="M152.5 305.5q33.5 -97.5 87.5 -201.5q52 106 84.5 203t40.5 193h103q-31 -237 -184 -500h-90q-159 272 -184 500h104q5 -97 38.5 -194.5z" />
    <glyph glyph-name="o.cond" horiz-adv-x="457" 
d="M50 249q0 129 46 195t133 66t132.5 -65t45.5 -196q0 -259 -179 -259q-178 0 -178 259zM228 18q147 0 147 219v26q0 106 -37.5 162.5t-109.5 56.5q-70 0 -108 -56.5t-38 -162.5v-26q0 -219 146 -219z" />
    <glyph glyph-name="a.del" horiz-adv-x="613" 
d="M151.5 17q-46.5 27 -74 85t-27.5 147q0 261 257 261q94 0 209 -36v-474h-90l-9 86q-25 -47 -67 -71.5t-96 -24.5q-56 0 -102.5 27zM187.5 118q33.5 -39 90.5 -39q62 0 98 44t36 114v167q-54 19 -108 19q-76 0 -113 -41.5t-37 -108.5v-46q0 -70 33.5 -109z" />
    <glyph glyph-name="o.ext" horiz-adv-x="657" 
d="M115.5 52.5q-65.5 62.5 -65.5 196.5q0 132 67 196.5t212 64.5q146 0 212 -63.5t66 -197.5q0 -132 -66.5 -195.5t-212.5 -63.5q-147 0 -212.5 62.5zM138.5 73q56.5 -55 189.5 -55q134 0 190.5 55.5t56.5 163.5v26q0 107 -59 163t-188 56t-187.5 -56t-58.5 -163v-26
q0 -109 56.5 -164z" />
    <glyph glyph-name="p.001" horiz-adv-x="615" 
d="M507 447q58 -63 58 -193t-58.5 -197t-153.5 -67q-113 0 -153 94v-284h-100v700h90l10 -96q44 106 159 106q90 0 148 -63zM235 122.5q31 -44.5 103 -44.5q65 0 94 40.5t29 108.5v46q0 70 -29.5 109.5t-93.5 39.5q-69 0 -101.5 -48t-32.5 -111v-26q0 -70 31 -114.5z" />
    <glyph glyph-name="f.ss01" horiz-adv-x="400" 
d="M183.5 676.5q33.5 33.5 87.5 33.5q42 0 91 -15v-22q-53 9 -91 9q-43 0 -67 -25.5t-24 -74.5v-82h182v-28h-182v-472h-30v472h-100v28h100v82q0 61 33.5 94.5z" />
    <glyph glyph-name="i.ss01" horiz-adv-x="148" 
d="M59 500h30v-500h-30v500zM53.5 667.5q8.5 8.5 20.5 8.5t20.5 -8.5t8.5 -20.5t-8.5 -20.5t-20.5 -8.5t-20.5 8.5t-8.5 20.5t8.5 20.5z" />
    <glyph glyph-name="l.ss01" horiz-adv-x="170" 
d="M70 700h30v-700h-30v700z" />
    <glyph glyph-name="t.ss01" horiz-adv-x="354" 
d="M140 500v130h30v-130h145v-28h-145v-359q0 -47 20.5 -68.5t64.5 -21.5q35 0 64 5v-24q-31 -9 -67 -9q-112 0 -112 114v363h-125v28h125z" />
    <glyph glyph-name="atilde.ss02" horiz-adv-x="535" 
d="M246 510q105 0 162 -46t57 -137v-327h-91l-6 54q-24 -29 -63.5 -46.5t-83.5 -17.5q-79 0 -125 40.5t-46 110.5q0 50 28.5 86t97.5 61t189 38q-2 49 -38 71t-104 22q-76 0 -144 -24v88q78 27 167 27zM175 555q-1 18 8 27.5t25 9.5q20 0 50 -14q41 -19 82 -19q39 0 61 26
t22 67q0 7 -2 23h-65q0 -39 -36 -39q-18 0 -47 12q-47 22 -83 22q-40 0 -64 -25t-24 -63q0 -13 3 -27h70zM175.5 92q24.5 -17 69.5 -17q64 0 120 40v121q-121 -11 -167.5 -34t-46.5 -62q0 -31 24.5 -48z" />
    <glyph glyph-name="i.ss02" horiz-adv-x="220" 
d="M62 500h100v-500h-100v500zM67.5 681.5q18.5 18.5 44.5 18.5t44.5 -18.5t18.5 -44.5t-18.5 -44.5t-44.5 -18.5t-44.5 18.5t-18.5 44.5t18.5 44.5z" />
    <glyph glyph-name="a.ss03" horiz-adv-x="515" 
d="M236 510q105 0 162 -46t57 -137v-327h-74l-26 87v2q-22 -49 -61 -74t-88 -25q-74 0 -120 41t-46 111q0 56 39.5 95t131.5 60l144 34q-4 46 -40 67t-102 21q-76 0 -144 -24v88q78 27 167 27zM162.5 93.5q21.5 -18.5 56.5 -18.5q36 0 67.5 20.5t50 55.5t18.5 75v18
l-140 -35q-41 -10 -57.5 -27t-16.5 -41q0 -29 21.5 -47.5z" />
    <glyph glyph-name="i.ss03" horiz-adv-x="220" 
d="M59 500h100v-500h-100v500zM57 701h105v-105h-105v105z" />
    <glyph glyph-name="n.ss04" horiz-adv-x="537" 
d="M387 0v306q0 60 -28 87t-91 27t-90.5 -27t-27.5 -87v-306h-100v292q0 118 56 168t163 50q73 0 120 -18.5t72.5 -66t25.5 -133.5v-292h-100z" />
    <glyph glyph-name="a.ss05" horiz-adv-x="515" 
d="M232 510q109 0 166 -46t57 -137v-327h-91l-6 54q-24 -30 -64 -47t-88 -17q-74 0 -120 41t-46 111q0 131 176 164q54 10 139 19q-2 50 -38 72t-104 22q-69 0 -144 -20v88q80 23 163 23zM164.5 91.5q23.5 -17.5 66.5 -17.5q65 0 124 41v123q-69 -7 -129 -21
q-48 -12 -66.5 -30.5t-18.5 -46.5q0 -31 23.5 -48.5z" />
    <glyph glyph-name="n.ss05" horiz-adv-x="560" 
d="M70 482q47 13 104.5 20.5t104.5 7.5q211 0 211 -167v-343h-100v325q0 54 -29 75.5t-95 21.5q-53 0 -96 -12v-410h-100v482z" />
    <glyph glyph-name="a.ss10" horiz-adv-x="547" 
d="M340.5 420q-28.5 3 -51.5 3q-74 0 -109.5 -41.5t-35.5 -108.5v-46q0 -67 28 -107t88 -40q43 0 76.5 15.5t55.5 38.5v277q-23 6 -51.5 9zM291 510q98 0 201 -31v-479h-90l-6 56q-60 -66 -148 -66q-92 0 -150 62t-58 198q0 260 251 260z" />
    <glyph glyph-name="g.ss10" horiz-adv-x="570" 
d="M108.5 67q-59.5 61 -59.5 182q0 261 257 261q94 0 209 -36v-419q0 -131 -71 -198t-202 -67q-33 0 -70 5t-68 14v87q60 -16 128 -16q90 0 136.5 40t46.5 119v20q-27 -26 -67 -39.5t-85 -13.5q-95 0 -154.5 61zM188.5 130q35.5 -35 103.5 -35q35 0 72 17t51 42v250
q-54 19 -112 19q-76 0 -113 -41.5t-37 -108.5v-46q0 -62 35.5 -97z" />
    <glyph glyph-name="m.ss10" horiz-adv-x="897" 
d="M100 482q47 13 104.5 20.5t104.5 7.5q90 0 140 -40q64 40 140 40q211 0 211 -167v-343h-100v325q0 54 -29 75.5t-95 21.5q-43 0 -84 -18q8 -30 8 -61v-343h-100v325q0 53 -26 75t-78 22q-53 0 -96 -12v-410h-100v482z" />
    <glyph glyph-name="n.ss10" horiz-adv-x="560" 
d="M70 482q47 13 104.5 20.5t104.5 7.5q211 0 211 -167v-343h-100v325q0 54 -29 75.5t-95 21.5q-53 0 -96 -12v-410h-100v482z" />
    <glyph glyph-name="p.ss10" horiz-adv-x="602" 
d="M303 78q74 0 109.5 41t35.5 108v46q0 65 -32.5 106t-93.5 41q-42 0 -64.5 -1.5t-57.5 -7.5v-325q50 -8 103 -8zM100 481q110 29 212 29q119 0 179.5 -62t60.5 -198q0 -260 -251 -260q-47 0 -101 8v-198h-100v681z" />
    <glyph glyph-name="u.ss10" horiz-adv-x="617" 
d="M517 18q-47 -13 -104.5 -20.5t-104.5 -7.5q-211 0 -211 167v343h100v-325q0 -54 29 -75.5t95 -21.5q53 0 96 12v410h100v-482z" />
    <glyph glyph-name="i.ss15" horiz-adv-x="257" 
d="M60 500h100v-367q0 -28 13 -40t39 -12q14 0 35 3v-83q-27 -11 -60 -11q-127 0 -127 139v371zM57 701h105v-105h-105v105z" />
    <glyph glyph-name="a.ss18" horiz-adv-x="525" 
d="M217 510q127 0 185 -44t58 -135v-321q-70 -11 -113 -15.5t-81 -4.5q-221 0 -221 152q0 49 29 85t97 63.5t187 50.5q-7 41 -42 59.5t-98 18.5q-77 0 -144 -19v92q67 18 143 18zM176.5 92q27.5 -16 91.5 -16q51 0 92 7v171q-91 -22 -135 -38t-60 -32.5t-16 -43.5
q0 -32 27.5 -48z" />
    <glyph glyph-name="atilde.ss18" horiz-adv-x="525" 
d="M217 510q127 0 185 -44t58 -135v-321q-70 -11 -113 -15.5t-81 -4.5q-221 0 -221 152q0 49 29 85t97 63.5t187 50.5q-7 41 -42 59.5t-98 18.5q-77 0 -144 -19v92q67 18 143 18zM171 555q-1 20 9.5 30.5t28.5 10.5q20 0 45 -12q23 -11 41.5 -16.5t40.5 -5.5q43 0 63 24.5
t20 66.5q0 8 -2 28h-65q0 -19 -9.5 -29t-26.5 -10q-20 0 -47 12q-14 7 -37 11.5t-46 4.5q-40 0 -64 -25t-24 -63q0 -13 3 -27h70zM176.5 92q27.5 -16 91.5 -16q51 0 92 7v171q-91 -22 -135 -38t-60 -32.5t-16 -43.5q0 -32 27.5 -48z" />
    <glyph glyph-name="f.ss18" horiz-adv-x="381" 
d="M138 666q46 44 125 44q33 0 57.5 -4.5t49.5 -14.5v-83q-56 13 -102 13q-42 0 -59 -20t-17 -60v-41h178v-88h-178v-412h-100v412h-92v88h92v39q0 83 46 127z" />
    <glyph glyph-name="t.ss18" horiz-adv-x="356" 
d="M146.5 30q-39.5 40 -39.5 115v265h-97v90h97l10 130h90v-130h134v-90h-134v-251q0 -43 19.5 -61.5t66.5 -18.5q21 0 48 4v-81q-31 -12 -83 -12q-72 0 -111.5 40z" />
    <glyph glyph-name="u.ss18" horiz-adv-x="614" 
d="M514 0h-91l-5 50q-27 -28 -66.5 -44t-85.5 -16q-79 0 -124 47t-45 121v342h100v-321q0 -52 23.5 -74.5t69.5 -22.5q66 0 124 43v375h100v-500z" />
    <glyph glyph-name="g.ss18.001" horiz-adv-x="557" 
d="M106.5 65.5q-56.5 60.5 -56.5 182.5q0 129 57.5 195.5t155.5 66.5q57 0 94 -15.5t58 -56.5l6 62h90v-446q0 -130 -71 -197t-202 -67q-33 0 -70 5t-68 14v87q60 -16 128 -16q90 0 136.5 40t46.5 118v36q-24 -39 -63 -54t-93 -15q-92 0 -148.5 60.5zM188.5 129.5
q35.5 -35.5 103.5 -35.5q32 0 67.5 16.5t51.5 39.5v243v3q-46 27 -108 27q-76 0 -113 -41.5t-37 -108.5v-46q0 -62 35.5 -97.5z" />
    <glyph glyph-name="period.alt" horiz-adv-x="210" 
d="M55 100h100v-100h-100v100z" />
    <glyph glyph-name="Ref" horiz-adv-x="3638" 
d="M2299.5 55q-57.5 65 -57.5 197q0 129 57.5 192.5t173.5 63.5t173 -64.5t57 -195.5q0 -130 -57 -194t-173 -64t-173.5 65zM20 500h141l5 -47q68 57 155 57q80 0 118 -44t38 -114v-352h-150v322q0 66 -70 66q-45 0 -87 -27v-361h-150v500zM577 442.5q60 65.5 177 65.5
q110 0 160 -54t50 -162q0 -38 -11 -93h-283q11 -48 44 -66.5t92 -18.5q39 0 63 3t72 14v-119q-49 -13 -81 -17.5t-78 -4.5q-138 0 -201.5 63.5t-63.5 193.5t60 195.5zM820 299v7q0 48 -20.5 68.5t-53.5 20.5q-35 0 -57.5 -23t-23.5 -73h155zM1005 630h150v-130h110v-120
h-110v-207q0 -29 15 -42t48 -13q31 0 53 7v-120q-17 -7 -44 -11t-55 -4q-83 0 -125 37.5t-42 118.5v484zM1364 474q53 36 150 36q37 0 72.5 -4t87.5 -14v-126q-40 6 -86.5 10t-75.5 4q-23 0 -31.5 -3.5t-8.5 -11.5t6.5 -14.5t20.5 -14.5l126 -70q39 -21 60.5 -49.5
t21.5 -72.5q0 -63 -53 -108.5t-178 -45.5q-83 0 -163 14v123q82 -13 163 -13q73 0 73 28q0 9 -6.5 15.5t-22.5 15.5l-106 60q-35 20 -56 37t-34 42.5t-13 62.5q0 63 53 99zM1746 630h150v-173q66 53 150 53q80 0 118 -44t38 -114v-352h-150v322q0 66 -70 66q-44 0 -86 -27
v-361h-150v630zM2412 141.5q22 -27.5 61 -27.5t60.5 27.5t21.5 75.5v63q0 48 -22 75.5t-61 27.5t-60.5 -27.5t-21.5 -75.5v-63q0 -48 22 -75.5zM2977 508q110 0 160 -54t50 -162q0 -38 -11 -93h-283q11 -48 44 -66.5t92 -18.5q41 0 65 2.5t71 13.5v-120q-46 -12 -78.5 -16
t-81.5 -4q-131 0 -198 65.5t-67 191.5q0 261 237 261zM3043 299v7q0 48 -20.5 68.5t-53.5 20.5q-35 0 -57.5 -23t-23.5 -73h155zM3267.5 474q49.5 36 146.5 36q35 0 73 -5t94 -16v-123q-40 6 -86.5 10t-75.5 4q-23 0 -31.5 -3.5t-8.5 -11.5t6.5 -14.5t20.5 -14.5l126 -70
q38 -21 62 -54t24 -78q0 -61 -51 -102.5t-173 -41.5q-61 0 -170 19v121q100 -16 163 -16q73 0 73 28q0 9 -6.5 15.5t-22.5 15.5l-107 60q-47 26 -76.5 57t-29.5 85q0 63 49.5 99z" />
    </font>
</defs>
</svg>
