<?xml version="1.0" standalone="no"?>
<!DOCTYPE svg PUBLIC "-//W3C//DTD SVG 1.1//EN" "http://www.w3.org/Graphics/SVG/1.1/DTD/svg11.dtd" >
<svg xmlns="http://www.w3.org/2000/svg" xmlns:xlink="http://www.w3.org/1999/xlink" version="1.1">
<metadata>
Created by FontForge 20201107 at Wed Feb 14 21:27:02 2024
 By 
</metadata>
<defs>
<font id="NetshoesConceito-LightTx" horiz-adv-x="616" >
  <font-face 
    font-family="Netshoes Conceito Light Tx"
    font-weight="300"
    font-stretch="normal"
    units-per-em="1000"
    panose-1="0 0 0 0 0 0 0 0 0 0"
    ascent="800"
    descent="-200"
    x-height="500"
    cap-height="680"
    bbox="8 -210 3626 710"
    underline-thickness="50"
    underline-position="-125"
    unicode-range="U+0020-00EA"
  />
<missing-glyph horiz-adv-x="466" 
d="M377 -200h-285v900h285v-900zM308 -138v30h-92l63 42h29v30h-150v-30h63l-63 -42v-30h150zM308 -15v101h-150v-101h150zM308 140v102h-90v-50h30v20h30v-42h-90v72h-30v-102h150zM308 262v90h-30v-60h-120v-30h150zM248 313v63h60v30h-150v-30h60v-33h-60v-30h90z
M308 430v31h-60v63h-90v-94h150zM308 547v30h-60v33h60v30h-149v-30h59v-33h-60v-30h150zM188 57h90v-43h-90v43zM188 493h30v-32h-30v32z" />
    <glyph glyph-name=".notdef" horiz-adv-x="466" 
d="M377 -200h-285v900h285v-900zM308 -138v30h-92l63 42h29v30h-150v-30h63l-63 -42v-30h150zM308 -15v101h-150v-101h150zM308 140v102h-90v-50h30v20h30v-42h-90v72h-30v-102h150zM308 262v90h-30v-60h-120v-30h150zM248 313v63h60v30h-150v-30h60v-33h-60v-30h90z
M308 430v31h-60v63h-90v-94h150zM308 547v30h-60v33h60v30h-149v-30h59v-33h-60v-30h150zM188 57h90v-43h-90v43zM188 493h30v-32h-30v32z" />
    <glyph glyph-name=".null" horiz-adv-x="0" 
 />
    <glyph glyph-name="nonmarkingreturn" horiz-adv-x="333" 
 />
    <glyph glyph-name="space" unicode=" " horiz-adv-x="226" 
 />
    <glyph glyph-name="space" unicode="&#xa0;" horiz-adv-x="226" 
 />
    <glyph glyph-name="comma" unicode="," 
 />
    <glyph glyph-name="period" unicode="." horiz-adv-x="242" 
d="M76.5 8.5q-18.5 18.5 -18.5 44.5t18.5 44.5t44.5 18.5t44.5 -18.5t18.5 -44.5t-18.5 -44.5t-44.5 -18.5t-44.5 18.5z" />
    <glyph glyph-name="A" unicode="A" 
 />
    <glyph glyph-name="B" unicode="B" 
 />
    <glyph glyph-name="C" unicode="C" 
 />
    <glyph glyph-name="D" unicode="D" 
 />
    <glyph glyph-name="E" unicode="E" horiz-adv-x="576" 
d="M78 680h420v-59h-354v-240h324v-59h-324v-263h354v-59h-420v680z" />
    <glyph glyph-name="F" unicode="F" 
 />
    <glyph glyph-name="G" unicode="G" 
 />
    <glyph glyph-name="H" unicode="H" horiz-adv-x="648" 
d="M78 680h66v-299h360v299h66v-680h-66v321h-360v-321h-66v680z" />
    <glyph glyph-name="I" unicode="I" horiz-adv-x="222" 
d="M78 680h66v-680h-66v680z" />
    <glyph glyph-name="J" unicode="J" 
 />
    <glyph glyph-name="K" unicode="K" 
 />
    <glyph glyph-name="L" unicode="L" 
 />
    <glyph glyph-name="M" unicode="M" 
 />
    <glyph glyph-name="N" unicode="N" 
 />
    <glyph glyph-name="O" unicode="O" 
 />
    <glyph glyph-name="P" unicode="P" 
 />
    <glyph glyph-name="Q" unicode="Q" 
 />
    <glyph glyph-name="R" unicode="R" horiz-adv-x="572" 
d="M78 680h244q104 0 155 -54.5t51 -149.5q0 -88 -47 -142t-130 -65l203 -269h-81l-200 267q-70 2 -130 17v-284h-65v680zM226 329.5q40 -3.5 93 -3.5q64 0 103 41.5t39 108.5q0 72 -35 108.5t-95 36.5h-188v-278q43 -10 83 -13.5z" />
    <glyph glyph-name="S" unicode="S" horiz-adv-x="587" 
d="M73 13v88q69 -12 109 -17t78 -5q89 0 129 24t40 78q0 30 -22 54t-68 45l-166 76q-57 26 -86 64.5t-29 93.5q0 86 60 131t175 45q49 0 101 -7.5t92 -21.5v-83q-104 20 -187 20q-79 0 -110.5 -20.5t-31.5 -64.5q0 -23 15 -41t59 -38l148 -65q84 -37 117 -80.5t33 -107.5
q0 -90 -64.5 -140.5t-180.5 -50.5q-108 0 -211 23z" />
    <glyph glyph-name="T" unicode="T" 
 />
    <glyph glyph-name="U" unicode="U" 
 />
    <glyph glyph-name="V" unicode="V" horiz-adv-x="609" 
d="M92 680l214 -598l213 598h67l-244 -680h-72l-247 680h69z" />
    <glyph glyph-name="W" unicode="W" 
 />
    <glyph glyph-name="X" unicode="X" 
 />
    <glyph glyph-name="Y" unicode="Y" 
 />
    <glyph glyph-name="Z" unicode="Z" 
 />
    <glyph glyph-name="a" unicode="a" horiz-adv-x="551" 
d="M258 510q104 0 152 -48t48 -139v-323h-58l-5 65q-28 -33 -68.5 -54t-92.5 -21q-77 0 -120.5 41.5t-43.5 109.5q0 48 28.5 83t99.5 58.5t195 34.5q-1 72 -36 103t-113 31q-80 0 -145 -23v57q72 25 159 25zM163 73.5q27 -26.5 83 -26.5q80 0 147 62v149q-93 -9 -148 -22
t-82 -36t-27 -60q0 -40 27 -66.5z" />
    <glyph glyph-name="b" unicode="b" horiz-adv-x="582" 
d="M282 77q70 0 106.5 44.5t36.5 105.5v47q0 67 -28 107t-88 40q-43 0 -76.5 -15.5t-55.5 -38.5v-274q43 -16 105 -16zM77 700h100v-250q57 60 144 60q90 0 149 -64t59 -195q0 -125 -64 -193t-186 -68q-50 0 -98 9t-104 27v674z" />
    <glyph glyph-name="c" unicode="c" horiz-adv-x="471" 
d="M363.5 -5.5q-28.5 -4.5 -66.5 -4.5q-113 0 -178.5 65.5t-65.5 189.5q0 132 66 198.5t180 66.5q33 0 62 -4.5t65 -16.5v-55q-56 17 -123 17q-91 0 -137.5 -48t-46.5 -135v-41q0 -84 49.5 -131t133.5 -47q68 0 126 18v-53q-36 -15 -64.5 -19.5z" />
    <glyph glyph-name="d" unicode="d" horiz-adv-x="518" 
d="M297 452q-78 0 -126.5 -46t-48.5 -133v-46q0 -83 39 -130t107 -47q48 0 86 19t61 45v320q-65 18 -118 18zM115.5 445.5q62.5 64.5 183.5 64.5q62 0 116 -17v207h65v-700h-55l-6 58q-33 -35 -72.5 -51.5t-87.5 -16.5q-90 0 -148 64.5t-58 195.5t62.5 195.5z" />
    <glyph glyph-name="e" unicode="e" horiz-adv-x="524" 
d="M123 56.5q-70 66.5 -70 192.5q0 124 58.5 192.5t158.5 68.5t150.5 -51t50.5 -150q0 -40 -9 -76h-343q1 -90 54.5 -137t146.5 -47q74 0 130 16v-57q-63 -18 -135 -18q-122 0 -192 66.5zM409 291v14q0 78 -35.5 112t-104.5 34q-64 0 -105.5 -43.5t-44.5 -116.5h290z" />
    <glyph glyph-name="f" unicode="f" horiz-adv-x="416" 
d="M180.5 674.5q37.5 35.5 98.5 35.5q51 0 100 -15v-52q-60 9 -91 9q-37 0 -58 -20.5t-21 -62.5l-1 -69h171v-58h-171v-442h-65v442h-100v58h100v75q0 64 37.5 99.5z" />
    <glyph glyph-name="g" unicode="g" horiz-adv-x="573" 
d="M439 64q-48 -59 -164 -59q-97 0 -151 59.5t-54 183.5q0 129 56.5 195.5t154.5 66.5q63 0 102 -16t61 -47l8 53h52v-446q0 -131 -65.5 -197.5t-192.5 -66.5q-33 0 -70 5t-68 14v58q30 -8 66 -12.5t66 -4.5q199 0 199 193v21zM175.5 106q39.5 -42 119.5 -42q41 0 84 18
t60 43v271q-24 28 -61 42.5t-76 14.5q-83 0 -124.5 -50t-41.5 -130v-46q0 -79 39.5 -121z" />
    <glyph glyph-name="h" unicode="h" horiz-adv-x="576" 
d="M93 700h65v-258q29 32 72.5 50t89.5 18q78 0 121.5 -39.5t43.5 -112.5v-358h-65v355q0 45 -26.5 72t-86.5 27q-41 0 -77 -15t-72 -48v-391h-65v700z" />
    <glyph glyph-name="i" unicode="i" horiz-adv-x="200" 
d="M69 500h65v-500h-65v500zM68.5 674.5q13.5 13.5 32.5 13.5q20 0 33 -13t13 -33q0 -19 -13.5 -32.5t-32.5 -13.5t-32.5 13.5t-13.5 32.5t13.5 32.5z" />
    <glyph glyph-name="j" unicode="j" 
 />
    <glyph glyph-name="k" unicode="k" 
 />
    <glyph glyph-name="l" unicode="l" horiz-adv-x="221" 
d="M78 700h65v-700h-65v700z" />
    <glyph glyph-name="m" unicode="m" horiz-adv-x="855" 
d="M93 500h58l5 -58q27 33 66 50.5t84 17.5q48 0 83 -18.5t54 -53.5q29 34 71.5 53t88.5 19q72 0 116 -40t44 -112v-358h-65v355q0 44 -24.5 71.5t-77.5 27.5q-40 0 -72 -14.5t-66 -46.5q3 -16 3 -35v-358h-65v355q0 44 -25.5 71.5t-77.5 27.5q-38 0 -69.5 -13.5
t-65.5 -47.5v-393h-65v500z" />
    <glyph glyph-name="n" unicode="n" horiz-adv-x="576" 
d="M93 500h58l5 -61q29 33 73.5 52t90.5 19q78 0 121.5 -39.5t43.5 -112.5v-358h-65v355q0 45 -26.5 72t-86.5 27q-41 0 -77 -15t-72 -48v-391h-65v500z" />
    <glyph glyph-name="o" unicode="o" horiz-adv-x="553" 
d="M110 54.5q-57 64.5 -57 194.5q0 129 58.5 195t165.5 66q108 0 165.5 -65t57.5 -196q0 -128 -58 -193.5t-166 -65.5q-109 0 -166 64.5zM157.5 98q38.5 -49 118.5 -49t119 49t39 134v36q0 86 -40 134.5t-118 48.5t-117.5 -48.5t-39.5 -134.5v-36q0 -85 38.5 -134z" />
    <glyph glyph-name="p" unicode="p" horiz-adv-x="573" 
d="M276 49q79 0 127.5 45.5t48.5 132.5v46q0 84 -38.5 131t-108.5 47q-48 0 -85.5 -19.5t-61.5 -45.5v-319q59 -18 118 -18zM93 500h58l4 -57q64 67 160 67q90 0 147.5 -64t57.5 -196q0 -130 -63.5 -195t-182.5 -65q-62 0 -116 17v-207h-65v700z" />
    <glyph glyph-name="q" unicode="q" 
 />
    <glyph glyph-name="r" unicode="r" horiz-adv-x="397" 
d="M93 500h58l5 -57q32 35 68 51t89 16q14 0 32 -2v-67q-19 3 -42 3q-41 0 -75.5 -12t-69.5 -40v-392h-65v500z" />
    <glyph glyph-name="s" unicode="s" horiz-adv-x="459" 
d="M68 7v57q91 -16 147 -16q67 0 99.5 20.5t32.5 56.5q0 27 -18 46t-63 40l-121 57q-44 21 -66 49t-22 68q0 57 45 91t136 34q82 0 142 -18v-55q-76 15 -140 15q-119 0 -119 -66q0 -19 12 -33t41 -28l123 -59q64 -30 88.5 -62.5t24.5 -77.5q0 -62 -46 -99t-139 -37
q-80 0 -157 17z" />
    <glyph glyph-name="t" unicode="t" horiz-adv-x="381" 
d="M139 500v130h65v-130h139v-59h-139v-305q0 -44 19 -64t62 -20q32 0 60 4v-52q-33 -11 -75 -11q-64 0 -97.5 33.5t-33.5 98.5v316h-110v59h110z" />
    <glyph glyph-name="u" unicode="u" horiz-adv-x="575" 
d="M135.5 33q-43.5 43 -43.5 115v352h65v-343q0 -107 113 -107q79 0 147 61v389h65v-500h-58l-5 60q-29 -34 -71.5 -52t-90.5 -18q-78 0 -121.5 43z" />
    <glyph glyph-name="v" unicode="v" horiz-adv-x="509" 
d="M95 500l161 -434l159 434h69l-191 -500h-75l-192 500h69z" />
    <glyph glyph-name="w" unicode="w" 
 />
    <glyph glyph-name="x" unicode="x" 
 />
    <glyph glyph-name="y" unicode="y" 
 />
    <glyph glyph-name="z" unicode="z" 
 />
    <glyph glyph-name="atilde" unicode="&#xe3;" horiz-adv-x="551" 
d="M395 65q-26 -33 -67 -54t-94 -21q-78 0 -121 40.5t-43 110.5q0 48 28.5 83t99.5 58.5t195 34.5q-1 72 -36 103t-113 31q-80 0 -145 -23v57q72 25 159 25q104 0 152 -48t48 -139v-323h-56zM124 582q0 33 20 55.5t54 22.5q21 0 39.5 -6.5t41.5 -17.5q20 -9 34 -14t27 -5
q18 0 27 12t8 41h44q1 -8 1 -21q0 -41 -19.5 -63.5t-53.5 -22.5q-20 0 -38.5 7t-41.5 19q-15 8 -30.5 14t-27.5 6q-19 0 -29 -13t-6 -38h-47q-3 12 -3 24zM162.5 73q26.5 -25 83.5 -25q81 0 147 61v149q-93 -9 -148 -22t-82 -36t-27 -60q0 -42 26.5 -67z" />
    <glyph glyph-name="ccedilla" unicode="&#xe7;" horiz-adv-x="471" 
d="M118.5 55.5q-65.5 65.5 -65.5 189.5q0 132 66 198.5t180 66.5q33 0 62 -4.5t65 -16.5v-55q-56 17 -123 17q-91 0 -137.5 -48t-46.5 -135v-41q0 -84 49.5 -131t133.5 -47q68 0 126 18v-53q-36 -15 -64.5 -19.5t-66.5 -4.5q-113 0 -178.5 65.5zM203 -152q43 -10 71 -10
q55 0 55 40q0 16 -13 33t-51 44h65q26 -18 39.5 -37t13.5 -44q0 -42 -28 -63t-73 -21q-35 0 -79 11v47z" />
    <glyph glyph-name="ecircumflex" unicode="&#xea;" horiz-adv-x="523" 
d="M247 670h44l116 -109h-72l-66 63l-66 -63h-68zM111.5 441.5q58.5 68.5 158.5 68.5t150.5 -51t50.5 -150q0 -40 -9 -76h-343q1 -90 54.5 -137t146.5 -47q74 0 130 16v-57q-63 -18 -135 -18q-122 0 -192 66.5t-70 192.5q0 124 58.5 192.5zM409 291v14q0 78 -35.5 112
t-104.5 34q-64 0 -105.5 -43.5t-44.5 -116.5h290z" />
    <glyph glyph-name="V.alt" horiz-adv-x="609" 
d="M184 426q42 -120 120 -299q71 155 115 283t72 270h105q-29 -158 -92 -324.5t-155 -355.5h-90q-94 190 -156 355.5t-90 324.5l108 1q21 -135 63 -255z" />
    <glyph glyph-name="d.alt" horiz-adv-x="543" 
d="M302 422q-74 0 -109.5 -41t-35.5 -108v-46q0 -69 32.5 -108t113.5 -39q60 0 102 5v329q-50 8 -103 8zM304 510q47 0 101 -8v198h100v-683q-55 -14 -102.5 -20.5t-111.5 -6.5q-238 0 -238 260t251 260z" />
    <glyph glyph-name="f.alt" horiz-adv-x="416" 
d="M128 500v182q52 13 115 20.5t113 7.5q18 0 32 -2v-97q-24 4 -63 4q-43 0 -97 -7v-108h160v-88h-160v-412h-100v412h-100v88h100z" />
    <glyph glyph-name="r.alt" horiz-adv-x="402" 
d="M93 482q58 12 127.5 20t126.5 8q14 0 32 -2v-97q-21 4 -60 4q-60 0 -126 -8v-407h-100v482z" />
    <glyph glyph-name="v.alt" horiz-adv-x="494" 
d="M160.5 305.5q33.5 -97.5 87.5 -201.5q52 106 84.5 203t40.5 193h103q-31 -237 -184 -500h-90q-159 272 -184 500h104q5 -97 38.5 -194.5z" />
    <glyph glyph-name="o.cond" horiz-adv-x="513" 
d="M116 52q-48 62 -48 197q0 133 49.5 197t139.5 64q188 0 188 -261q0 -259 -189 -259q-92 0 -140 62zM164.5 93.5q30.5 -44.5 91.5 -44.5q62 0 92.5 44.5t30.5 128.5v56q0 84 -31.5 128.5t-91.5 44.5q-59 0 -90.5 -44.5t-31.5 -128.5v-56q0 -84 30.5 -128.5z" />
    <glyph glyph-name="a.del" horiz-adv-x="611" 
d="M154.5 17q-46.5 27 -74 85t-27.5 147q0 261 257 261q94 0 209 -36v-474h-90l-9 86q-25 -47 -67 -71.5t-96 -24.5q-56 0 -102.5 27zM190.5 118q33.5 -39 90.5 -39q62 0 98 44t36 114v167q-54 19 -108 19q-76 0 -113 -41.5t-37 -108.5v-46q0 -70 33.5 -109z" />
    <glyph glyph-name="o.ext" horiz-adv-x="683" 
d="M120.5 53.5q-67.5 63.5 -67.5 195.5q0 130 69.5 195.5t219.5 65.5q151 0 219.5 -64.5t68.5 -196.5q0 -130 -68.5 -194.5t-220.5 -64.5q-153 0 -220.5 63.5zM168.5 98q49.5 -49 172.5 -49q124 0 173.5 49.5t49.5 138.5v26q0 90 -50.5 139t-172.5 49q-121 0 -171.5 -49
t-50.5 -139v-26q0 -90 49.5 -139z" />
    <glyph glyph-name="p.001" horiz-adv-x="611" 
d="M500 447q58 -63 58 -193t-58.5 -197t-153.5 -67q-113 0 -153 94v-284h-100v700h90l10 -96q44 106 159 106q90 0 148 -63zM228 122.5q31 -44.5 103 -44.5q65 0 94 40.5t29 108.5v46q0 70 -29.5 109.5t-93.5 39.5q-69 0 -101.5 -48t-32.5 -111v-26q0 -70 31 -114.5z" />
    <glyph glyph-name="f.ss01" horiz-adv-x="416" 
d="M150.5 678q43.5 32 128.5 32q46 0 100 -15v-52q-60 9 -91 9q-56 0 -85.5 -15.5t-29.5 -52.5q0 -15 4.5 -28t9.5 -23t6 -13l10 -20h176v-58h-171v-442h-65v442h-100v58h94l-12 24t-13 32t-5 34q0 56 43.5 88z" />
    <glyph glyph-name="i.ss01" horiz-adv-x="271" 
d="M104.5 22q-26.5 29 -26.5 83v395h65v-392q0 -30 14 -43t41 -13q14 0 35 3v-54q-23 -8 -51 -8q-51 0 -77.5 29zM79.5 675q13.5 13 32.5 13t32.5 -13.5t13.5 -32.5t-13.5 -32.5t-32.5 -13.5t-32.5 13.5t-13.5 32.5q0 20 13.5 33z" />
    <glyph glyph-name="l.ss01" horiz-adv-x="270" 
d="M103 21.5q-26 28.5 -26 83.5v595h65v-593q0 -30 14 -42.5t40 -12.5q21 0 36 3v-54q-24 -8 -54 -8q-49 0 -75 28.5z" />
    <glyph glyph-name="t.ss01" horiz-adv-x="331" 
d="M123 26.5q-34 33.5 -34 98.5v505h65v-130h139v-59h-139v-305q0 -44 19.5 -64t62.5 -20q31 0 60 4v-52q-33 -11 -75 -11q-64 0 -98 33.5z" />
    <glyph glyph-name="atilde.ss02" horiz-adv-x="551" 
d="M254 510q105 0 162 -46t57 -137v-327h-91l-6 54q-24 -29 -63.5 -46.5t-83.5 -17.5q-79 0 -125 40.5t-46 110.5q0 50 28.5 86t97.5 61t189 38q-2 49 -38 71t-104 22q-76 0 -144 -24v88q78 27 167 27zM183 555q-1 18 8 27.5t25 9.5q20 0 50 -14q41 -19 82 -19q39 0 61 26
t22 67q0 7 -2 23h-65q0 -39 -36 -39q-18 0 -47 12q-47 22 -83 22q-40 0 -64 -25t-24 -63q0 -13 3 -27h70zM183.5 92q24.5 -17 69.5 -17q64 0 120 40v121q-121 -11 -167.5 -34t-46.5 -62q0 -31 24.5 -48z" />
    <glyph glyph-name="i.ss02" horiz-adv-x="236" 
d="M70 500h100v-500h-100v500zM75.5 681.5q18.5 18.5 44.5 18.5t44.5 -18.5t18.5 -44.5t-18.5 -44.5t-44.5 -18.5t-44.5 18.5t-18.5 44.5t18.5 44.5z" />
    <glyph glyph-name="a.ss03" horiz-adv-x="531" 
d="M244 510q105 0 162 -46t57 -137v-327h-74l-26 87v2q-22 -49 -61 -74t-88 -25q-74 0 -120 41t-46 111q0 56 39.5 95t131.5 60l144 34q-4 46 -40 67t-102 21q-76 0 -144 -24v88q78 27 167 27zM170.5 93.5q21.5 -18.5 56.5 -18.5q36 0 67.5 20.5t50 55.5t18.5 75v18
l-140 -35q-41 -10 -57.5 -27t-16.5 -41q0 -29 21.5 -47.5z" />
    <glyph glyph-name="i.ss03" horiz-adv-x="236" 
d="M67 500h100v-500h-100v500zM65 701h105v-105h-105v105z" />
    <glyph glyph-name="n.ss04" horiz-adv-x="553" 
d="M395 0v306q0 60 -28 87t-91 27t-90.5 -27t-27.5 -87v-306h-100v292q0 118 56 168t163 50q73 0 120 -18.5t72.5 -66t25.5 -133.5v-292h-100z" />
    <glyph glyph-name="a.ss05" horiz-adv-x="531" 
d="M240 510q109 0 166 -46t57 -137v-327h-91l-6 54q-24 -30 -64 -47t-88 -17q-74 0 -120 41t-46 111q0 131 176 164q54 10 139 19q-2 50 -38 72t-104 22q-69 0 -144 -20v88q80 23 163 23zM172.5 91.5q23.5 -17.5 66.5 -17.5q65 0 124 41v123q-69 -7 -129 -21
q-48 -12 -66.5 -30.5t-18.5 -46.5q0 -31 23.5 -48.5z" />
    <glyph glyph-name="n.ss05" horiz-adv-x="576" 
d="M78 482q47 13 104.5 20.5t104.5 7.5q211 0 211 -167v-343h-100v325q0 54 -29 75.5t-95 21.5q-53 0 -96 -12v-410h-100v482z" />
    <glyph glyph-name="a.ss10" horiz-adv-x="563" 
d="M348.5 420q-28.5 3 -51.5 3q-74 0 -109.5 -41.5t-35.5 -108.5v-46q0 -67 28 -107t88 -40q43 0 76.5 15.5t55.5 38.5v277q-23 6 -51.5 9zM299 510q98 0 201 -31v-479h-90l-6 56q-60 -66 -148 -66q-92 0 -150 62t-58 198q0 260 251 260z" />
    <glyph glyph-name="g.ss10" horiz-adv-x="586" 
d="M116.5 67q-59.5 61 -59.5 182q0 261 257 261q94 0 209 -36v-419q0 -131 -71 -198t-202 -67q-33 0 -70 5t-68 14v87q60 -16 128 -16q90 0 136.5 40t46.5 119v20q-27 -26 -67 -39.5t-85 -13.5q-95 0 -154.5 61zM196.5 130q35.5 -35 103.5 -35q35 0 72 17t51 42v250
q-54 19 -112 19q-76 0 -113 -41.5t-37 -108.5v-46q0 -62 35.5 -97z" />
    <glyph glyph-name="m.ss10" horiz-adv-x="885" 
d="M93 482q47 13 104.5 20.5t104.5 7.5q90 0 140 -40q64 40 140 40q211 0 211 -167v-343h-100v325q0 54 -29 75.5t-95 21.5q-43 0 -84 -18q8 -30 8 -61v-343h-100v325q0 53 -26 75t-78 22q-53 0 -96 -12v-410h-100v482z" />
    <glyph glyph-name="n.ss10" horiz-adv-x="576" 
d="M78 482q47 13 104.5 20.5t104.5 7.5q211 0 211 -167v-343h-100v325q0 54 -29 75.5t-95 21.5q-53 0 -96 -12v-410h-100v482z" />
    <glyph glyph-name="p.ss10" horiz-adv-x="598" 
d="M296 78q74 0 109.5 41t35.5 108v46q0 65 -32.5 106t-93.5 41q-42 0 -64.5 -1.5t-57.5 -7.5v-325q50 -8 103 -8zM93 481q110 29 212 29q119 0 179.5 -62t60.5 -198q0 -260 -251 -260q-47 0 -101 8v-198h-100v681z" />
    <glyph glyph-name="u.ss10" horiz-adv-x="605" 
d="M512 18q-47 -13 -104.5 -20.5t-104.5 -7.5q-211 0 -211 167v343h100v-325q0 -54 29 -75.5t95 -21.5q53 0 96 12v410h100v-482z" />
    <glyph glyph-name="i.ss15" horiz-adv-x="273" 
d="M68 500h100v-367q0 -28 13 -40t39 -12q14 0 35 3v-83q-27 -11 -60 -11q-127 0 -127 139v371zM65 701h105v-105h-105v105z" />
    <glyph glyph-name="a.ss18" horiz-adv-x="541" 
d="M225 510q127 0 185 -44t58 -135v-321q-70 -11 -113 -15.5t-81 -4.5q-221 0 -221 152q0 49 29 85t97 63.5t187 50.5q-7 41 -42 59.5t-98 18.5q-77 0 -144 -19v92q67 18 143 18zM184.5 92q27.5 -16 91.5 -16q51 0 92 7v171q-91 -22 -135 -38t-60 -32.5t-16 -43.5
q0 -32 27.5 -48z" />
    <glyph glyph-name="atilde.ss18" horiz-adv-x="541" 
d="M225 510q127 0 185 -44t58 -135v-321q-70 -11 -113 -15.5t-81 -4.5q-221 0 -221 152q0 49 29 85t97 63.5t187 50.5q-7 41 -42 59.5t-98 18.5q-77 0 -144 -19v92q67 18 143 18zM179 555q-1 20 9.5 30.5t28.5 10.5q20 0 45 -12q23 -11 41.5 -16.5t40.5 -5.5q43 0 63 24.5
t20 66.5q0 8 -2 28h-65q0 -19 -9.5 -29t-26.5 -10q-20 0 -47 12q-14 7 -37 11.5t-46 4.5q-40 0 -64 -25t-24 -63q0 -13 3 -27h70zM184.5 92q27.5 -16 91.5 -16q51 0 92 7v171q-91 -22 -135 -38t-60 -32.5t-16 -43.5q0 -32 27.5 -48z" />
    <glyph glyph-name="f.ss18" horiz-adv-x="397" 
d="M146 666q46 44 125 44q33 0 57.5 -4.5t49.5 -14.5v-83q-56 13 -102 13q-42 0 -59 -20t-17 -60v-41h178v-88h-178v-412h-100v412h-92v88h92v39q0 83 46 127z" />
    <glyph glyph-name="t.ss18" horiz-adv-x="372" 
d="M154.5 30q-39.5 40 -39.5 115v265h-97v90h97l10 130h90v-130h134v-90h-134v-251q0 -43 19.5 -61.5t66.5 -18.5q21 0 48 4v-81q-31 -12 -83 -12q-72 0 -111.5 40z" />
    <glyph glyph-name="u.ss18" horiz-adv-x="602" 
d="M509 0h-91l-5 50q-27 -28 -66.5 -44t-85.5 -16q-79 0 -124 47t-45 121v342h100v-321q0 -52 23.5 -74.5t69.5 -22.5q66 0 124 43v375h100v-500z" />
    <glyph glyph-name="g.ss18.001" horiz-adv-x="573" 
d="M114.5 65.5q-56.5 60.5 -56.5 182.5q0 129 57.5 195.5t155.5 66.5q57 0 94 -15.5t58 -56.5l6 62h90v-446q0 -130 -71 -197t-202 -67q-33 0 -70 5t-68 14v87q60 -16 128 -16q90 0 136.5 40t46.5 118v36q-24 -39 -63 -54t-93 -15q-92 0 -148.5 60.5zM196.5 129.5
q35.5 -35.5 103.5 -35.5q32 0 67.5 16.5t51.5 39.5v243v3q-46 27 -108 27q-76 0 -113 -41.5t-37 -108.5v-46q0 -62 35.5 -97.5z" />
    <glyph glyph-name="period.alt" horiz-adv-x="226" 
d="M63 100h100v-100h-100v100z" />
    <glyph glyph-name="Ref" horiz-adv-x="3654" 
d="M2307.5 55q-57.5 65 -57.5 197q0 129 57.5 192.5t173.5 63.5t173 -64.5t57 -195.5q0 -130 -57 -194t-173 -64t-173.5 65zM28 500h141l5 -47q68 57 155 57q80 0 118 -44t38 -114v-352h-150v322q0 66 -70 66q-45 0 -87 -27v-361h-150v500zM585 442.5q60 65.5 177 65.5
q110 0 160 -54t50 -162q0 -38 -11 -93h-283q11 -48 44 -66.5t92 -18.5q39 0 63 3t72 14v-119q-49 -13 -81 -17.5t-78 -4.5q-138 0 -201.5 63.5t-63.5 193.5t60 195.5zM828 299v7q0 48 -20.5 68.5t-53.5 20.5q-35 0 -57.5 -23t-23.5 -73h155zM1013 630h150v-130h110v-120
h-110v-207q0 -29 15 -42t48 -13q31 0 53 7v-120q-17 -7 -44 -11t-55 -4q-83 0 -125 37.5t-42 118.5v484zM1372 474q53 36 150 36q37 0 72.5 -4t87.5 -14v-126q-40 6 -86.5 10t-75.5 4q-23 0 -31.5 -3.5t-8.5 -11.5t6.5 -14.5t20.5 -14.5l126 -70q39 -21 60.5 -49.5
t21.5 -72.5q0 -63 -53 -108.5t-178 -45.5q-83 0 -163 14v123q82 -13 163 -13q73 0 73 28q0 9 -6.5 15.5t-22.5 15.5l-106 60q-35 20 -56 37t-34 42.5t-13 62.5q0 63 53 99zM1754 630h150v-173q66 53 150 53q80 0 118 -44t38 -114v-352h-150v322q0 66 -70 66q-44 0 -86 -27
v-361h-150v630zM2420 141.5q22 -27.5 61 -27.5t60.5 27.5t21.5 75.5v63q0 48 -22 75.5t-61 27.5t-60.5 -27.5t-21.5 -75.5v-63q0 -48 22 -75.5zM2985 508q110 0 160 -54t50 -162q0 -38 -11 -93h-283q11 -48 44 -66.5t92 -18.5q41 0 65 2.5t71 13.5v-120q-46 -12 -78.5 -16
t-81.5 -4q-131 0 -198 65.5t-67 191.5q0 261 237 261zM3051 299v7q0 48 -20.5 68.5t-53.5 20.5q-35 0 -57.5 -23t-23.5 -73h155zM3275.5 474q49.5 36 146.5 36q35 0 73 -5t94 -16v-123q-40 6 -86.5 10t-75.5 4q-23 0 -31.5 -3.5t-8.5 -11.5t6.5 -14.5t20.5 -14.5l126 -70
q38 -21 62 -54t24 -78q0 -61 -51 -102.5t-173 -41.5q-61 0 -170 19v121q100 -16 163 -16q73 0 73 28q0 9 -6.5 15.5t-22.5 15.5l-107 60q-47 26 -76.5 57t-29.5 85q0 63 49.5 99z" />
    </font>
</defs>
</svg>
